<svg id="Layer_1" data-name="Layer 1" xmlns="http://www.w3.org/2000/svg" viewBox="0 0 230 240.53"><defs><style>.cls-1{opacity:0.15;}.cls-2{fill:#fff;}.cls-3{opacity:0.5;}</style></defs><g id="Type1"><g class="cls-1"><path class="cls-2" d="M32.58,248.26c44.29-.89,98-82.28,126.34-44.48s48.48,19.52,57.82,10.64C277,156.31,229,22.18,119.29,8.28S-7.13,249.06,32.58,248.26Z" transform="translate(-13 -7.73)"/></g><g class="cls-3"><path class="cls-2" d="M110.75,10.73a65,65,0,0,1,8.17.53A135.22,135.22,0,0,1,192.2,44.63a145,145,0,0,1,41,62.5c6.49,19.53,8.37,39.44,5.44,57.57-3.06,18.92-11.36,35.37-24,47.55-4.52,4.29-12.08,11.48-22,11.48s-20.5-7.32-31.32-21.75c-5.58-7.43-12.6-11.21-20.87-11.21-15.25,0-32.67,12.59-51.12,25.92-19.2,13.87-39,28.22-56.81,28.58h-.13c-9.65,0-16.39-23.5-16.39-57.15,0-39.73,8.56-83,22.91-115.71,12.33-28.13,34.81-61.68,71.84-61.68m0-3C9,7.73-6,248.27,32.39,248.27h.19c36-.72,78.11-54.49,107.87-54.49,6.9,0,13.13,2.9,18.47,10,13.08,17.44,24.4,22.95,33.72,22.95,10.9,0,19.06-7.52,24.1-12.31C277,156.31,229,22.18,119.29,8.28a67.7,67.7,0,0,0-8.54-.55Z" transform="translate(-13 -7.73)"/></g><g class="cls-1"><path class="cls-2" d="M53.39,223.6c34,.25,83.47-68.1,107.71-35.78s41.46,16.7,49.44,9.1C262.1,147.22,221,32.52,127.21,20.63S19.43,223.35,53.39,223.6Z" transform="translate(-13 -7.73)"/></g><g class="cls-3"><path class="cls-2" d="M119.8,23.15a56.17,56.17,0,0,1,7,.46A115.16,115.16,0,0,1,189.27,52a123.59,123.59,0,0,1,35,53.26c5.52,16.64,7.12,33.59,4.63,49-2.6,16.09-9.65,30.07-20.38,40.42-3.82,3.63-10.21,9.7-18.54,9.7s-17.27-6.2-26.44-18.43c-4.92-6.55-11.24-9.88-18.8-9.88-13.86,0-29.57,10.86-46.2,22.36-15.72,10.87-32,22.1-44.92,22.1h-.17c-5,0-8.25-8.11-9.72-12.91-2.75-9.06-4.18-21.7-4.12-36.56.12-33.46,7.45-69.68,19.62-96.87,10.42-23.32,29.4-51.11,60.61-51.11m0-3c-87.1,0-99.46,203.21-66.41,203.45h.19c27.45,0,65-44.46,91.12-44.46,6.2,0,11.76,2.5,16.4,8.68,11.18,14.92,20.87,19.63,28.84,19.63,9.32,0,16.3-6.44,20.6-10.53C262.1,147.22,221,32.52,127.21,20.63a58.92,58.92,0,0,0-7.41-.48Z" transform="translate(-13 -7.73)"/></g><g class="cls-1"><path class="cls-2" d="M75.74,196.64c26.92.54,66.85-53.16,85.74-27.29s32.7,13.65,39.1,7.71C242,138.18,210.5,46.84,136.28,36.48S48.82,196.1,75.74,196.64Z" transform="translate(-13 -7.73)"/></g><g class="cls-3"><path class="cls-2" d="M129.86,39a44.17,44.17,0,0,1,6,.43,90.71,90.71,0,0,1,48.87,23,97.44,97.44,0,0,1,27,42.31c4.18,13.15,5.27,26.5,3.16,38.61-2.2,12.6-7.87,23.49-16.38,31.49-3,2.74-7.91,7.34-14.19,7.34-6.49,0-13.37-4.92-20.45-14.62-4-5.49-9.25-8.28-15.57-8.28-11.11,0-23.65,8.44-36.93,17.38-12.4,8.34-25.21,17-35.26,17H75.8c-2.58,0-5.1-3.54-6.9-9.56-2.07-6.93-3.1-16.64-3-28.08.26-26.35,6.28-55,16.1-76.61C90.38,61,105.47,39,129.86,39m0-3c-68.55,0-80.24,160.1-54.12,160.62h.4c21.66,0,51.55-34.34,72.19-34.34,5,0,9.48,2,13.15,7,8.81,12.07,16.51,15.85,22.87,15.85,7.28,0,12.81-5,16.23-8.14C242,138.18,210.5,46.84,136.28,36.48a45.87,45.87,0,0,0-6.42-.46Z" transform="translate(-13 -7.73)"/></g><g class="cls-1"><path class="cls-2" d="M96.54,166.93c20.86.41,52.41-39.47,67.05-19.43s25.34,10.58,30.3,6C226,123.34,201.58,52.56,144.06,44.53S75.68,166.51,96.54,166.93Z" transform="translate(-13 -7.73)"/></g><g class="cls-3"><path class="cls-2" d="M139,47.17a33.3,33.3,0,0,1,4.63.33,69.56,69.56,0,0,1,37.51,17.66,74.77,74.77,0,0,1,20.75,32.49c6.67,21,2.81,41.53-10.06,53.62-2.22,2.06-5.94,5.51-10.54,5.51-4.8,0-9.94-3.71-15.3-11.05a15.58,15.58,0,0,0-13.08-6.87c-8.87,0-18.75,6.25-29.21,12.85-9.5,6-19.34,12.22-26.86,12.22H96.6c-1.64,0-3.36-2.51-4.62-6.63-1.56-5.11-2.33-12.31-2.25-20.83.36-36,16.27-89.3,49.29-89.3m0-3c-53.1,0-62.72,122.35-42.48,122.76h.32c16.65,0,39.94-25.07,56.07-25.07a12.58,12.58,0,0,1,10.66,5.64c6.82,9.35,12.79,12.28,17.72,12.28,5.65,0,9.93-3.85,12.58-6.31C226,123.34,201.58,52.56,144.06,44.53a36.45,36.45,0,0,0-5-.36Z" transform="translate(-13 -7.73)"/></g><g class="cls-1"><path class="cls-2" d="M121.34,138c11.46.23,31.88-19.88,39.92-8.86s13.93,5.81,16.66,3.28c17.62-16.56,4.22-55.47-27.39-59.88S109.87,137.8,121.34,138Z" transform="translate(-13 -7.73)"/></g><g class="cls-3"><path class="cls-2" d="M147.68,75.37a18.42,18.42,0,0,1,2.44.17C167.44,78,177.44,90.89,181,102.18c3.5,11,1.52,21.79-5.16,28.07-1.08,1-2.88,2.67-4.88,2.67-2.71,0-5.48-3-7.32-5.52a10.7,10.7,0,0,0-9.12-4.53c-5.63,0-12.14,3.34-18.43,6.57-5.35,2.75-10.89,5.6-14.6,5.6h0c-.46-.4-1.87-2.85-1.91-9.68a78.88,78.88,0,0,1,3.07-20.93c2.36-8.36,5.74-15.46,9.77-20.52,4.52-5.67,9.65-8.54,15.26-8.54m0-3c-29.3,0-37.46,65.44-26.34,65.66h.19c9,0,23.38-12.17,33-12.17a7.77,7.77,0,0,1,6.7,3.3c3.75,5.13,7,6.75,9.74,6.75,3.11,0,5.46-2.12,6.92-3.47,17.62-16.56,4.22-55.47-27.39-59.88a21.46,21.46,0,0,0-2.85-.2Z" transform="translate(-13 -7.73)"/></g></g></svg>